<?xml version="1.0" encoding="UTF-8" standalone="no"?>
<!-- Created with Inkscape (http://www.inkscape.org/) -->

<svg
   width="124.26458mm"
   height="100.2646mm"
   viewBox="0 0 124.26458 100.2646"
   version="1.1"
   id="svg5"
   xml:space="preserve"
   inkscape:version="1.2.2 (732a01da63, 2022-12-09)"
   sodipodi:docname="base-pad.svg"
   xmlns:inkscape="http://www.inkscape.org/namespaces/inkscape"
   xmlns:sodipodi="http://sodipodi.sourceforge.net/DTD/sodipodi-0.dtd"
   xmlns="http://www.w3.org/2000/svg"
   xmlns:svg="http://www.w3.org/2000/svg"><sodipodi:namedview
     id="namedview7"
     pagecolor="#ffffff"
     bordercolor="#000000"
     borderopacity="0.25"
     inkscape:showpageshadow="2"
     inkscape:pageopacity="0.0"
     inkscape:pagecheckerboard="0"
     inkscape:deskcolor="#d1d1d1"
     inkscape:document-units="mm"
     showgrid="false"
     inkscape:zoom="1.0507202"
     inkscape:cx="117.06256"
     inkscape:cy="84.227942"
     inkscape:window-width="1920"
     inkscape:window-height="991"
     inkscape:window-x="-9"
     inkscape:window-y="-9"
     inkscape:window-maximized="1"
     inkscape:current-layer="layer1" /><defs
     id="defs2"><marker
       id="DistanceX"
       orient="auto"
       refX="0"
       refY="0"
       style="overflow:visible"><path
         d="M 3,-3 -3,3 M 0,-5 V 5"
         style="stroke:#000000;stroke-width:0.5"
         id="path1777" /></marker><pattern
       id="Hatch"
       patternUnits="userSpaceOnUse"
       width="8"
       height="8"
       x="0"
       y="0"><path
         d="M8 4 l-4,4"
         stroke="#000000"
         stroke-width="0.25"
         linecap="square"
         id="path1780" /><path
         d="M6 2 l-4,4"
         stroke="#000000"
         stroke-width="0.25"
         linecap="square"
         id="path1782" /><path
         d="M4 0 l-4,4"
         stroke="#000000"
         stroke-width="0.25"
         linecap="square"
         id="path1784" /></pattern><symbol
       id="*MODEL_SPACE" /><symbol
       id="*PAPER_SPACE" /></defs><g
     inkscape:label="Layer 1"
     inkscape:groupmode="layer"
     id="layer1"
     transform="translate(-35.087132,-81.986403)"><g
       inkscape:label="0"
       id="g1807"
       transform="matrix(0.26458333,0,0,0.26458333,97.219423,-164.8813)"
       style="fill:none;stroke:#0000ff;stroke-width:1;stroke-dasharray:none;stroke-opacity:1"><path
         d="m -158.74016,933.5433 a 75.590551,75.590551 0 0 0 -75.59055,75.5906 v 226.7716 a 75.590551,75.590551 0 0 0 75.59055,75.5906 h 317.48032 a 75.590551,75.590551 0 0 0 75.59055,-75.5906 v -226.7716 a 75.590551,75.590551 0 0 0 -75.59055,-75.5906 z"
         style="fill:none;stroke:#0000ff;stroke-width:1;stroke-dasharray:none;stroke-opacity:1"
         id="path1791" /><path
         d="m -158.74016,933.5433 a 75.590551,75.590551 0 0 0 -75.59055,75.5906 v 226.7716 a 75.590551,75.590551 0 0 0 75.59055,75.5906 h 317.48032 a 75.590551,75.590551 0 0 0 75.59055,-75.5906 v -226.7716 a 75.590551,75.590551 0 0 0 -75.59055,-75.5906 z"
         style="fill:none;stroke:#0000ff;stroke-width:1;stroke-dasharray:none;stroke-opacity:1"
         id="path1805" /></g></g></svg>
