<?xml version="1.0" encoding="UTF-8" standalone="no"?>
<svg
   width="167mm"
   height="111.99999999999997mm"
   viewBox="-83.5 -55.999999999999986 167 111.99999999999997"
   version="1.1"
   id="svg8"
   sodipodi:docname="sticker.svg"
   inkscape:version="1.2.2 (732a01da63, 2022-12-09)"
   xmlns:inkscape="http://www.inkscape.org/namespaces/inkscape"
   xmlns:sodipodi="http://sodipodi.sourceforge.net/DTD/sodipodi-0.dtd"
   xmlns="http://www.w3.org/2000/svg"
   xmlns:svg="http://www.w3.org/2000/svg"
   xmlns:rdf="http://www.w3.org/1999/02/22-rdf-syntax-ns#"
   xmlns:cc="http://creativecommons.org/ns#"
   xmlns:dc="http://purl.org/dc/elements/1.1/">
  <defs
     id="defs12" />
  <sodipodi:namedview
     id="namedview10"
     pagecolor="#ffffff"
     bordercolor="#000000"
     borderopacity="0.25"
     inkscape:showpageshadow="2"
     inkscape:pageopacity="0.0"
     inkscape:pagecheckerboard="0"
     inkscape:deskcolor="#d1d1d1"
     inkscape:document-units="mm"
     showgrid="false"
     inkscape:zoom="1.9702009"
     inkscape:cx="315.70385"
     inkscape:cy="211.90732"
     inkscape:window-width="1920"
     inkscape:window-height="991"
     inkscape:window-x="-9"
     inkscape:window-y="-9"
     inkscape:window-maximized="1"
     inkscape:current-layer="svg8" />
  <title
     id="title2">svgOutput</title>
  <desc
     id="desc4">made with tinkercad</desc>
  <path
     d="M 82.37699890136719 -46.56399917602538 L 82.5 -44.99999999999999 L 82.5 -32.76800155639648 L 82.5 -16.38400077819824 L 82.5 1.1102230246251565e-16 L 82.5 44.99999999999999 L 82.37699890136719 46.56399917602538 L 82.01100158691406 48.090000152587876 L 81.41000366210938 49.54000091552733 L 80.58999633789062 50.87799835205077 L 79.57099914550781 52.0709991455078 L 78.37799835205078 53.090000152587876 L 77.04000091552734 53.909999847412095 L 75.58999633789062 54.51100158691405 L 74.06400299072266 54.87699890136717 L 72.5 54.999999999999986 L 65.53600311279297 54.999999999999986 L 0 54.999999999999986 L -32.768001556396484 54.999999999999986 L -65.53600311279297 54.999999999999986 L -72.5 54.999999999999986 L -74.06400299072266 54.87699890136717 L -75.58999633789062 54.51100158691405 L -77.04000091552734 53.909999847412095 L -78.37799835205078 53.090000152587876 L -79.57099914550781 52.0709991455078 L -80.58999633789062 50.87799835205077 L -81.41000366210938 49.54000091552733 L -82.01100158691406 48.090000152587876 L -82.37699890136719 46.56399917602538 L -82.5 44.99999999999999 L -82.5 1.1102230246251565e-16 L -82.5 -44.99999999999999 L -82.37699890136719 -46.56399917602538 L -82.01100158691406 -48.090000152587876 L -81.41000366210938 -49.54000091552733 L -80.58999633789062 -50.87799835205077 L -79.57099914550781 -52.0709991455078 L -78.37799835205078 -53.090000152587876 L -77.04000091552734 -53.909999847412095 L -75.58999633789062 -54.51100158691405 L -74.06400299072266 -54.87699890136717 L -72.5 -54.999999999999986 L 0 -54.999999999999986 L 65.53600311279297 -54.999999999999986 L 72.5 -54.999999999999986 L 74.06400299072266 -54.87699890136717 L 75.58999633789062 -54.51100158691405 L 77.04000091552734 -53.909999847412095 L 78.37799835205078 -53.090000152587876 L 79.57099914550781 -52.0709991455078 L 80.58999633789062 -50.87799835205077 L 81.41000366210938 -49.54000091552733 L 82.01100158691406 -48.090000152587876 L 82.37699890136719 -46.56399917602538 M -0.017000000923871994 28.39200019836425 L 0 28.38012504577636 L 0.9980000257492065 27.683000564575188 L 1.8489999771118164 26.78400039672851 L 2.503000020980835 25.73200035095214 L 2.930999994277954 24.56999969482421 L 3.117000102996826 23.34499931335449 L 3.052999973297119 22.108999252319332 L 2.740999937057495 20.909999847412106 L 2.194999933242798 19.79899978637695 L 1.4359999895095825 18.819999694824215 L 0.4959999918937683 18.01399993896484 L 0 17.739208221435543 L -0.5870000123977661 17.413999557495114 L -1.7690000534057617 17.04299926757812 L -3.000999927520752 16.91799926757812 L -4.232999801635742 17.04299926757812 L -5.414000034332275 17.413999557495114 L -6.497000217437744 18.01399993896484 L -7.436999797821045 18.819999694824215 L -8.196000099182129 19.79899978637695 L -8.741999626159668 20.909999847412106 L -9.053999900817871 22.108999252319332 L -9.118000030517578 23.34499931335449 L -8.932000160217285 24.56999969482421 L -8.929789543151855 24.57600021362304 L -8.503999710083008 25.73200035095214 L -8.192000389099121 26.234640121459954 L -7.85099983215332 26.78400039672851 L -6.999000072479248 27.683000564575188 L -5.984000205993652 28.39200019836425 L -5.974104881286621 28.67200088500976 L -5.956999778747559 29.156000137329094 L -5.736999988555908 29.888000488281243 L -5.339000225067139 30.54100036621093 L -4.789000034332275 31.072000503540032 L -4.123000144958496 31.445999145507805 L -3.382999897003174 31.63999938964843 L -2.618000030517578 31.63999938964843 L -1.878999948501587 31.445999145507805 L -1.2120000123977661 31.072000503540032 L -0.6620000004768372 30.54100036621093 L -0.2639999985694885 29.888000488281243 L -0.04399999976158142 29.156000137329094 L -0.02689528837800026 28.67200088500976 L -0.017000000923871994 28.39200019836425 M 70.88400268554688 -29.457000732421868 L 70.54199981689453 -30.35899925231933 L 69.99400329589844 -31.152000427246087 L 69.27200317382812 -31.791999816894524 L 68.41799926757812 -32.24000167846679 L 67.48200225830078 -32.47100067138671 L 66.51799774169922 -32.47100067138671 L 65.58200073242188 -32.24000167846679 L 65.53600311279297 -32.215869903564446 L 64.72799682617188 -31.791999816894524 L 64.00599670410156 -31.152000427246087 L 63.45800018310547 -30.35899925231933 L 63.11600112915039 -29.457000732421868 L 63 -28.499999999999993 L 63.11600112915039 -27.542999267578118 L 63.45800018310547 -26.641000747680657 L 64.00599670410156 -25.8479995727539 L 64.72799682617188 -25.20800018310546 L 65.53600311279297 -24.784132003784173 L 65.58200073242188 -24.76000022888183 L 66.32756042480469 -24.57600021362304 L 66.51799774169922 -24.528999328613274 L 67.48200225830078 -24.528999328613274 L 67.67243957519531 -24.57600021362304 L 68.41799926757812 -24.76000022888183 L 69.27200317382812 -25.20800018310546 L 69.99400329589844 -25.8479995727539 L 70.54199981689453 -26.641000747680657 L 70.88400268554688 -27.542999267578118 L 71 -28.499999999999993 L 70.9791488647461 -28.67200088500976 L 70.88400268554688 -29.457000732421868 z"
     fill="none"
     stroke="rgb(255,0,0)"
     stroke-width="0.001mm"
     id="path6"
     style="fill:none;fill-opacity:1;stroke-width:0.26458333;stroke-dasharray:none;stroke:#000000;stroke-opacity:1" />
  <metadata
     id="metadata1158">
    <rdf:RDF>
      <cc:Work
         rdf:about="">
        <dc:title>svgOutput</dc:title>
      </cc:Work>
    </rdf:RDF>
  </metadata>
</svg>
