<?xml version="1.0" encoding="UTF-8" standalone="no"?>
<svg
   width="167mm"
   height="111.99999999999997mm"
   viewBox="-83.5 -55.999999999999986 167 111.99999999999997"
   version="1.1"
   id="svg8"
   sodipodi:docname="sticker-cutout.svg"
   inkscape:version="1.2.2 (732a01da63, 2022-12-09)"
   xmlns:inkscape="http://www.inkscape.org/namespaces/inkscape"
   xmlns:sodipodi="http://sodipodi.sourceforge.net/DTD/sodipodi-0.dtd"
   xmlns="http://www.w3.org/2000/svg"
   xmlns:svg="http://www.w3.org/2000/svg"
   xmlns:rdf="http://www.w3.org/1999/02/22-rdf-syntax-ns#"
   xmlns:cc="http://creativecommons.org/ns#"
   xmlns:dc="http://purl.org/dc/elements/1.1/">
  <defs
     id="defs12" />
  <sodipodi:namedview
     id="namedview10"
     pagecolor="#ffffff"
     bordercolor="#000000"
     borderopacity="0.25"
     inkscape:showpageshadow="2"
     inkscape:pageopacity="0.0"
     inkscape:pagecheckerboard="0"
     inkscape:deskcolor="#d1d1d1"
     inkscape:document-units="mm"
     showgrid="false"
     inkscape:zoom="1.9170409"
     inkscape:cx="281.94495"
     inkscape:cy="211.78473"
     inkscape:window-width="1920"
     inkscape:window-height="1009"
     inkscape:window-x="-8"
     inkscape:window-y="-8"
     inkscape:window-maximized="1"
     inkscape:current-layer="svg8" />
  <title
     id="title2">svgOutput</title>
  <desc
     id="desc4">made with tinkercad</desc>
  <path
     d="M 82.37699890136719 -46.56399917602538 L 82.5 -44.99999999999999 L 82.5 -32.76800155639648 L 82.5 -16.38400077819824 L 82.5 1.1102230246251565e-16 L 82.5 44.99999999999999 L 82.37699890136719 46.56399917602538 L 82.01100158691406 48.090000152587876 L 81.41000366210938 49.54000091552733 L 80.58999633789062 50.87799835205077 L 79.57099914550781 52.0709991455078 L 78.37799835205078 53.090000152587876 L 77.04000091552734 53.909999847412095 L 75.58999633789062 54.51100158691405 L 74.06400299072266 54.87699890136717 L 72.5 54.999999999999986 L 65.53600311279297 54.999999999999986 L 25.92186164855957 54.999999999999986 L 17.724668502807617 54.999999999999986 L 10.905994415283203 54.999999999999986 L 4.861551284790039 54.999999999999986 L 0 54.999999999999986 L -32.768001556396484 54.999999999999986 L -65.53600311279297 54.999999999999986 L -72.5 54.999999999999986 L -74.06400299072266 54.87699890136717 L -75.58999633789062 54.51100158691405 L -77.04000091552734 53.909999847412095 L -78.37799835205078 53.090000152587876 L -79.57099914550781 52.0709991455078 L -80.58999633789062 50.87799835205077 L -81.41000366210938 49.54000091552733 L -81.57081604003906 49.15200042724608 L -81.91999816894531 48.30955123901366 L -82.01100158691406 48.090000152587876 L -82.37699890136719 46.56399917602538 L -82.5 44.99999999999999 L -82.5 32.76800155639648 L -82.5 1.1102230246251565e-16 L -82.5 -44.99999999999999 L -82.37699890136719 -46.56399917602538 L -82.01100158691406 -48.090000152587876 L -81.41000366210938 -49.54000091552733 L -80.58999633789062 -50.87799835205077 L -79.57099914550781 -52.0709991455078 L -78.37799835205078 -53.090000152587876 L -77.04000091552734 -53.909999847412095 L -75.58999633789062 -54.51100158691405 L -74.06400299072266 -54.87699890136717 L -72.5 -54.999999999999986 L 0 -54.999999999999986 L 59.787879943847656 -54.999999999999986 L 65.53600311279297 -54.999999999999986 L 72.5 -54.999999999999986 L 74.06400299072266 -54.87699890136717 L 75.58999633789062 -54.51100158691405 L 77.04000091552734 -53.909999847412095 L 78.37799835205078 -53.090000152587876 L 79.57099914550781 -52.0709991455078 L 80.58999633789062 -50.87799835205077 L 81.41000366210938 -49.54000091552733 L 82.01100158691406 -48.090000152587876 L 82.37699890136719 -46.56399917602538 M 0.9860000014305115 28.947999954223626 L 1.9889999628067017 28.128999710083 L 2.8269999027252197 27.14200019836425 L 3.4730000495910645 26.020000457763665 L 3.9040000438690186 24.798999786376946 L 4.107999801635742 23.520999908447262 L 4.077000141143799 22.225999832153317 L 3.812999963760376 20.95899963378906 L 3.322999954223633 19.760000228881832 L 2.930101156234741 19.147325515747067 L 2.624000072479248 18.67000007629394 L 1.7400000095367432 17.72400093078613 L 0.6990000009536743 16.954000473022457 L 6.5470831440452276e-15 16.612012863159176 L -0.46399998664855957 16.385000228881832 L -0.4675730764865875 16.38400077819824 L -1.7109999656677246 16.0359992980957 L -3.000999927520752 15.918000221252438 L -4.289999961853027 16.0359992980957 L -5.533426761627197 16.38400077819824 L -5.5370001792907715 16.385000228881832 L -6.699999809265137 16.954000473022457 L -7.741000175476074 17.72400093078613 L -8.62600040435791 18.67000007629394 L -9.324000358581543 19.760000228881832 L -9.814000129699707 20.95899963378906 L -10.079000473022461 22.225999832153317 L -10.109999656677246 23.520999908447262 L -9.941596031188965 24.57600021362304 L -9.906000137329102 24.798999786376946 L -9.473999977111816 26.020000457763665 L -8.82800006866455 27.14200019836425 L -7.989999771118164 28.128999710083 L -7.436713218688965 28.580785751342766 L -6.986999988555908 28.947999954223626 L -6.794000148773193 29.926000595092766 L -6.363999843597412 30.82600021362304 L -5.72599983215332 31.590999603271477 L -4.916999816894531 32.17499923706054 L -3.990000009536743 32.54000091552734 L -3.000999927520752 32.66400146484374 L -2.01200008392334 32.54000091552734 L -1.0839999914169312 32.17499923706054 L -0.2759999930858612 31.590999603271477 L 0 31.26057815551757 L 0.3630000054836273 30.82600021362304 L 0.7919999957084656 29.926000595092766 L 0.8922135233879089 29.420799255371087 L 0.9860000014305115 28.947999954223626 M 65.58200073242188 -32.24000167846679 L 65.53600311279297 -32.215869903564446 L 64.72799682617188 -31.791999816894524 L 64.00599670410156 -31.152000427246087 L 63.45800018310547 -30.35899925231933 L 63.11600112915039 -29.457000732421868 L 63 -28.499999999999993 L 63.11600112915039 -27.542999267578118 L 63.45800018310547 -26.641000747680657 L 64.00599670410156 -25.8479995727539 L 64.72799682617188 -25.20800018310546 L 65.53600311279297 -24.784132003784173 L 65.58200073242188 -24.76000022888183 L 66.32756042480469 -24.57600021362304 L 66.51799774169922 -24.528999328613274 L 67.48200225830078 -24.528999328613274 L 67.67243957519531 -24.57600021362304 L 68.41799926757812 -24.76000022888183 L 69.27200317382812 -25.20800018310546 L 69.99400329589844 -25.8479995727539 L 70.54199981689453 -26.641000747680657 L 70.88400268554688 -27.542999267578118 L 71 -28.499999999999993 L 70.9791488647461 -28.67200088500976 L 70.88400268554688 -29.457000732421868 L 70.54199981689453 -30.35899925231933 L 69.99400329589844 -31.152000427246087 L 69.27200317382812 -31.791999816894524 L 68.41799926757812 -32.24000167846679 L 67.48200225830078 -32.47100067138671 L 66.51799774169922 -32.47100067138671 L 65.58200073242188 -32.24000167846679 M -65.27799987792969 37.46599960327148 L -65.53600311279297 37.3703269958496 L -66.41600036621094 37.04399871826171 L -67.61599731445312 36.86100006103515 L -68.8280029296875 36.92200088500976 L -70.00399780273438 37.226001739501946 L -71.09400177001953 37.761001586914055 L -72.05400085449219 38.50400161743163 L -72.84400177001953 39.42499923706054 L -73.43399810791016 40.48699951171874 L -73.582275390625 40.95999908447265 L -73.7969970703125 41.645000457763665 L -73.91999816894531 42.85300064086913 L -73.7969970703125 44.0610008239746 L -73.43399810791016 45.219001770019524 L -72.84400177001953 46.28099822998046 L -72.05400085449219 47.20199966430663 L -71.09400177001953 47.94499969482421 L -70.00399780273438 48.47900009155272 L -68.8280029296875 48.7840003967285 L -67.61599731445312 48.84500122070311 L -66.41600036621094 48.66099929809569 L -65.53600311279297 48.33544540405272 L -65.27799987792969 48.24000167846678 L -64.24700164794922 47.5979995727539 L -63.367000579833984 46.761001586914055 L -62.67399978637695 45.76499938964843 L -62.19499969482422 44.64899826049804 L -61.95100021362305 43.45999908447265 L -61.95100021362305 42.24599838256835 L -62.19499969482422 41.05699920654296 L -62.67399978637695 39.94100189208984 L -63.367000579833984 38.94499969482421 L -64.24700164794922 38.10800170898437 L -65.27799987792969 37.46599960327148 z"
     fill="none"
     stroke="rgb(255,0,0)"
     stroke-width="0.001mm"
     id="path6"
     style="fill:none;fill-opacity:1;stroke-width:0.26458333;stroke-dasharray:none" />
  <metadata
     id="metadata1164">
    <rdf:RDF>
      <cc:Work
         rdf:about="">
        <dc:title>svgOutput</dc:title>
      </cc:Work>
    </rdf:RDF>
  </metadata>
</svg>
